<svg width="51" height="52" viewBox="0 0 51 52" fill="none" xmlns="http://www.w3.org/2000/svg">
<path d="M45.75 26.2503C45.75 31.643 43.6077 36.8149 39.7945 40.6281C35.9813 44.4414 30.8094 46.5836 25.4167 46.5836C20.0239 46.5836 14.8521 44.4414 11.0388 40.6281C7.22559 36.8149 5.08333 31.643 5.08333 26.2503C5.08333 20.8575 7.22559 15.6857 11.0388 11.8724C14.8521 8.0592 20.0239 5.91694 25.4167 5.91694C27.3483 5.91694 29.2292 6.19653 31.0083 6.70486L34.9987 2.71444C31.9597 1.46284 28.7034 0.823669 25.4167 0.83361C22.0789 0.83361 18.7738 1.49103 15.6901 2.76834C12.6064 4.04565 9.80452 5.91782 7.44437 8.27798C2.67782 13.0445 0 19.5094 0 26.2503C0 32.9912 2.67782 39.456 7.44437 44.2226C9.80452 46.5827 12.6064 48.4549 15.6901 49.7322C18.7738 51.0095 22.0789 51.6669 25.4167 51.6669C32.1576 51.6669 38.6224 48.9891 43.389 44.2226C48.1555 39.456 50.8333 32.9912 50.8333 26.2503M15.0212 21.3703L11.4375 24.9794L22.875 36.4169L48.2917 11.0003L44.7079 7.39111L22.875 29.224L15.0212 21.3703Z" fill="#F72585"/>
</svg>
